PathFileType	4	(X/Y/Z)	 s04c0301.trc
DataRate	CameraRate	NumFrames	NumMarkers	Units	OrigDataRate	OrigDataStartFrame	OrigNumFrames
200	200	6	50	mm	200	1251	2000
Frame#	Time	racr			lacr			c7			jug			rlel			rdr			llel			ldr			s2			lic			ric			lasi			rasi			rpsi			lpsi			rgt			lgt			rth1			rth2			rth3			rth4			rlfc			rmfc			rsh1			rsh2			rsh3			rsh4			rlmal			rmmal			rcal			rtoe			rmt5			lth1			lth2			lth4			lth3			llfc			lmfc			lsh1			lsh2			lsh3			lsh4			llmal			lmmal			lcal			ltoe			lmt5			SBIKE			LBIKE			RBIKE			
		X1	Y1	Z1	X2	Y2	Z2	X3	Y3	Z3	X4	Y4	Z4	X5	Y5	Z5	X6	Y6	Z6	X7	Y7	Z7	X8	Y8	Z8	X9	Y9	Z9	X10	Y10	Z10	X11	Y11	Z11	X12	Y12	Z12	X13	Y13	Z13	X14	Y14	Z14	X15	Y15	Z15	X16	Y16	Z16	X17	Y17	Z17	X18	Y18	Z18	X19	Y19	Z19	X20	Y20	Z20	X21	Y21	Z21	X22	Y22	Z22	X23	Y23	Z23	X24	Y24	Z24	X25	Y25	Z25	X26	Y26	Z26	X27	Y27	Z27	X28	Y28	Z28	X29	Y29	Z29	X30	Y30	Z30	X31	Y31	Z31	X32	Y32	Z32	X33	Y33	Z33	X34	Y34	Z34	X35	Y35	Z35	X36	Y36	Z36	X37	Y37	Z37	X38	Y38	Z38	X39	Y39	Z39	X40	Y40	Z40	X41	Y41	Z41	X42	Y42	Z42	X43	Y43	Z43	X44	Y44	Z44	X45	Y45	Z45	X46	Y46	Z46	X47	Y47	Z47	X48	Y48	Z48	X49	Y49	Z49	X50	Y50	Z50	
1251	6.2550	846.313635	1230.533734	-68.781311	860.564414	1237.583019	-391.365007	890.589541	1306.213483	-238.957043	784.198589	1194.827154	-248.702717	564.416075	1119.004025	63.357468	706.164529	922.404066	-78.203812	629.166389	1141.883953	-554.265239	713.296933	914.019052	-449.817311	285.795845	1312.151984	-319.986713	457.969021	1230.706295	-441.766844	402.662375	1306.915605	-131.948892	462.041658	1177.486984	-386.096714	427.044991	1233.827227	-156.242084	321.942384	1354.042166	-280.893799	334.700150	1336.353102	-351.178494	351.122279	1276.296672	-113.026487	365.529091	1154.656891	-464.689328	446.733466	1146.127582	-97.430775	516.786530	1092.754329	-103.087036	553.203844	1015.782924	-101.668261	540.851551	1113.612737	-124.340875	629.317627	889.208490	-122.882844	605.404442	872.101383	-234.878487	541.873115	802.197327	-97.121540	494.100907	724.936251	-107.938602	415.837404	688.232592	-111.028234	516.609843	704.367063	-132.228957	312.741320	572.593421	-114.026561	333.239721	570.277313	-199.138296	234.929522	573.236795	-151.514555	495.231612	420.606423	-149.272073	426.699892	430.907385	-92.156714	361.117306	1067.914751	-475.404841	384.711784	984.387418	-474.133805	419.200232	985.425262	-463.297895	362.771227	898.009749	-476.272377	343.393119	733.710539	-455.643201	358.728278	700.399321	-343.417304	284.536753	619.954333	-475.671260	257.080416	539.926450	-455.188380	192.173597	479.377277	-454.451632	282.101448	527.700518	-426.777875	109.863981	355.915500	-450.871882	106.916574	356.062256	-362.846865	42.047124	390.877916	-410.607102	236.221356	155.982526	-399.700829	165.280235	184.229644	-465.441525	-177.562626	939.198584	-278.978363	-3.277847	85.969250	-484.653284	-15.062576	80.529611	-84.193602	
1252	6.2600	846.433168	1229.949925	-69.559237	859.797738	1238.176730	-391.951880	889.882819	1306.505069	-239.455371	784.078523	1194.575099	-249.215011	564.222998	1119.236420	62.440054	705.056260	922.019941	-78.335090	629.122234	1141.810318	-554.710398	713.243298	914.144221	-450.179630	286.192565	1315.848624	-317.569696	457.059321	1234.356990	-441.046329	403.573029	1307.755805	-130.311043	461.390507	1180.327398	-385.906806	427.422421	1234.830140	-155.596382	322.594203	1357.072411	-278.106099	334.989666	1339.818408	-348.297708	351.610247	1277.156489	-111.543824	365.523290	1158.786427	-463.985582	445.407219	1145.211966	-97.147177	514.672700	1091.050927	-103.330808	549.424062	1013.353657	-102.703213	538.970466	1111.643452	-124.432637	625.322733	885.068952	-125.859533	599.822889	868.863519	-236.389497	538.508330	796.244372	-98.387063	492.598450	717.728314	-109.325324	415.467641	679.192654	-111.874223	515.740779	697.852873	-133.900528	315.307026	561.901309	-113.988836	335.693523	559.918662	-199.518605	237.459191	560.505501	-151.484134	501.777481	414.652069	-149.201261	433.091888	423.585516	-91.868321	363.653858	1070.664845	-474.187153	389.825809	987.864490	-473.069860	424.056765	989.871563	-461.438166	370.541949	900.837183	-475.788285	354.680418	736.791166	-456.293828	368.066050	703.427688	-344.440988	291.518660	624.726211	-476.642607	261.568548	545.700957	-455.818259	194.824676	487.262801	-455.097765	285.932156	532.824681	-427.077933	108.047978	365.886942	-451.045653	105.392178	366.495733	-362.925617	41.096686	402.272594	-410.342368	228.790929	161.780979	-399.831097	158.589309	192.276575	-465.405274	-177.455299	939.315005	-278.798729	-3.256907	86.053657	-484.638795	-15.048120	80.555459	-84.197464	
1253	6.2650	846.739438	1229.644411	-70.410170	859.008443	1238.784093	-392.775064	889.166998	1306.901269	-240.102688	784.034463	1194.350231	-249.835282	564.227001	1119.715513	61.278331	705.086176	922.026627	-78.873208	628.954222	1141.713567	-555.279624	713.957511	915.055792	-452.732572	286.519098	1319.212677	-315.107471	456.151553	1237.940088	-440.317971	404.455967	1308.399179	-128.861003	460.692061	1183.234801	-385.783681	427.877225	1235.688863	-155.141828	323.162021	1359.723638	-275.239874	337.681202	1342.832391	-347.758558	351.954497	1277.562499	-109.976191	365.907690	1163.120717	-463.796104	443.807179	1143.708073	-96.797623	512.345896	1088.676578	-103.434831	546.387521	1010.625985	-103.682302	536.958117	1109.125351	-124.244190	620.250694	881.021507	-127.579173	594.040155	865.345027	-237.723445	535.174625	789.902635	-99.690161	491.128928	710.470379	-110.652204	415.115283	669.897238	-112.821724	514.796748	691.143037	-135.387675	318.351860	550.528037	-114.083236	338.744301	549.044667	-200.087499	240.069997	547.852580	-151.501106	507.735696	407.974318	-149.300839	438.890121	415.558545	-91.882587	366.566911	1073.496845	-472.985664	395.420143	991.411384	-472.074045	429.281457	994.398263	-459.663205	378.742774	903.774399	-475.381684	366.757257	739.888680	-457.289331	377.903570	706.525353	-345.478568	298.799624	629.730313	-477.494628	266.452475	551.758577	-456.511612	197.871718	495.351089	-455.639152	290.320742	538.366605	-427.816882	107.150645	376.044376	-451.452013	104.399403	377.101208	-363.395706	40.747968	413.972438	-410.554879	221.757497	167.909370	-399.756594	152.615166	200.471618	-465.148504	-177.338531	939.375135	-278.610761	-3.240243	86.137108	-484.620408	-15.017784	80.539050	-84.174006	
1254	6.2700	847.151581	1229.550891	-71.395977	858.100141	1239.397362	-393.758818	888.451336	1307.399488	-240.884787	783.971977	1194.242623	-250.481123	564.332871	1120.398605	60.173111	705.138131	922.007107	-79.035093	628.713261	1141.596234	-555.969997	713.862293	915.154035	-453.067675	286.635330	1322.195660	-312.499099	455.238829	1241.425557	-439.528725	405.199969	1308.515662	-127.244243	461.644201	1186.450624	-388.154836	428.336243	1236.132182	-154.650896	323.605755	1362.050496	-272.307737	337.960615	1345.744630	-344.843366	352.292021	1277.410496	-108.484786	366.323181	1167.143607	-463.170080	442.027085	1141.737888	-96.133376	509.752624	1085.840804	-103.373394	542.878871	1007.374316	-104.599987	534.739398	1106.203950	-123.707234	614.171948	877.145532	-127.933335	588.133737	861.249913	-238.919172	531.618530	783.458805	-100.840802	489.581241	702.818456	-111.880930	414.743464	660.284985	-113.809619	513.730168	684.267496	-136.730746	321.225912	539.280985	-114.229362	340.973363	538.350471	-200.493546	242.986843	535.413226	-151.940775	513.146501	400.393864	-149.286355	444.182497	406.913206	-92.024833	369.862996	1076.255559	-471.917099	401.194496	994.968067	-470.801228	434.729248	998.879211	-457.771332	387.409282	907.057163	-475.336744	378.613746	743.055577	-457.912503	387.906090	709.684064	-346.344346	306.559258	635.075205	-478.591290	271.746859	558.037941	-457.297318	201.441085	503.702570	-456.494932	295.005034	544.086425	-428.359272	106.721799	386.249929	-452.155739	103.614305	387.752152	-364.006014	41.024050	426.000289	-411.550143	215.216426	174.765572	-399.070617	147.423049	209.342485	-464.848740	-177.181678	939.270170	-278.314115	-3.203005	86.195026	-484.614149	-14.994079	80.555132	-84.169584	
1255	6.2750	847.646421	1229.613501	-72.398420	857.259432	1240.116526	-394.988693	887.745554	1307.994065	-241.784610	783.990415	1194.180455	-251.325546	564.423246	1121.290915	59.003743	705.455916	922.142530	-79.297773	628.347731	1141.475965	-556.939649	713.826199	915.228845	-453.301062	286.661429	1324.870045	-309.806863	454.419775	1244.740875	-438.809384	405.847701	1308.354192	-125.586257	461.776845	1189.102654	-388.097908	428.869686	1236.370180	-154.114199	323.920081	1364.021136	-269.472527	338.229167	1348.429942	-342.191055	352.504014	1276.790115	-106.912170	366.855383	1171.028921	-462.512588	440.060464	1139.196575	-95.545618	507.067646	1082.456740	-103.226900	539.134904	1003.569274	-105.520649	532.447114	1102.686065	-122.978883	608.677602	872.681929	-129.234180	582.152268	856.799071	-240.024057	528.190908	776.915123	-102.139791	487.930895	695.349386	-112.941260	414.236367	650.724695	-114.655749	512.507247	677.398529	-137.835268	323.873244	527.995196	-114.676617	343.156324	527.274613	-200.721142	245.941828	522.829605	-152.509667	518.126290	392.096681	-149.389678	449.060198	397.730437	-92.191586	373.431391	1079.150835	-471.183026	407.235359	998.860443	-469.752764	440.295723	1003.678706	-455.984745	396.173101	910.516132	-475.241288	389.737842	746.436462	-458.441776	397.945461	712.825485	-347.055132	314.452898	640.331505	-479.461466	277.291992	564.507816	-458.059438	205.338226	512.344187	-457.431720	299.891282	549.984756	-428.897884	107.092995	396.516170	-452.768799	103.832447	398.237335	-364.984543	41.591108	437.904345	-412.182993	209.391838	182.131948	-398.192841	143.021601	218.349445	-464.395428	-176.897919	939.293003	-278.205798	-3.178528	86.253505	-484.592629	-14.961709	80.571871	-84.153050	
1256	6.2800	848.148643	1229.892752	-73.528644	856.383771	1240.955149	-396.311247	887.060130	1308.676232	-242.782877	783.944316	1194.291280	-252.275104	564.653598	1122.301185	57.900313	705.877762	922.382209	-79.505548	627.939073	1141.257544	-557.871201	713.839436	915.255682	-453.473842	286.967963	1326.980938	-307.787039	453.602976	1247.857187	-438.003229	406.444683	1307.949679	-123.925368	461.416083	1191.537824	-387.937786	429.530785	1236.409338	-153.494920	324.304046	1365.881213	-267.382412	338.265799	1350.722085	-339.514730	352.641889	1275.809545	-105.407843	367.695474	1174.683945	-461.953780	438.030523	1136.367669	-94.786909	504.173584	1078.663780	-102.983906	534.659652	999.247757	-105.779289	530.085357	1098.894499	-122.116414	603.036303	868.086428	-130.322969	576.153661	851.992509	-241.013860	524.176676	770.470994	-103.011378	485.960623	687.785147	-113.789483	413.798389	641.398563	-115.435096	511.102996	670.568240	-138.729702	326.306820	516.811772	-115.005017	345.821952	516.170100	-201.440651	248.589621	510.514099	-152.705172	522.452355	383.162378	-149.298590	453.351556	388.124323	-92.385860	377.149208	1082.125254	-470.586710	413.298892	1002.962837	-468.722387	445.904279	1008.604505	-454.175886	405.080306	914.358679	-475.214400	400.288377	749.970277	-458.790439	407.712763	716.000847	-347.554959	322.434057	645.472162	-480.246332	282.995002	571.013111	-458.659857	209.501149	520.811759	-458.193544	304.969820	555.905137	-429.289510	108.115181	406.694822	-453.369117	103.940267	409.332932	-365.955078	42.956740	449.716189	-413.080326	204.119103	189.387390	-397.465493	139.032926	227.314521	-464.008795	-176.819005	939.384655	-278.221752	-3.161972	86.341170	-484.589489	-14.954945	80.603705	-84.153397	
